<?xml version="1.0" encoding="UTF-8" standalone="no"?>
<!-- Created with Inkscape (http://www.inkscape.org/) -->

<svg
   xmlns:dc="http://purl.org/dc/elements/1.1/"
   xmlns:cc="http://creativecommons.org/ns#"
   xmlns:rdf="http://www.w3.org/1999/02/22-rdf-syntax-ns#"
   xmlns:svg="http://www.w3.org/2000/svg"
   xmlns="http://www.w3.org/2000/svg"
   xmlns:xlink="http://www.w3.org/1999/xlink"
   xmlns:sodipodi="http://sodipodi.sourceforge.net/DTD/sodipodi-0.dtd"
   xmlns:inkscape="http://www.inkscape.org/namespaces/inkscape"
   width="1024"
   height="150"
   id="svg11242"
   version="1.1"
   inkscape:version="0.48.2 r9819"
   sodipodi:docname="reveals.svg">
  <defs
     id="defs11244">
    <linearGradient
       id="linearGradient36987">
      <stop
         style="stop-color:#5b0709;stop-opacity:1;"
         offset="0"
         id="stop36989" />
      <stop
         style="stop-color:#230709;stop-opacity:1;"
         offset="1"
         id="stop36991" />
    </linearGradient>
    <linearGradient
       id="linearGradient12025">
      <stop
         style="stop-color:#7c7e78;stop-opacity:1;"
         offset="0"
         id="stop12027" />
      <stop
         style="stop-color:#373933;stop-opacity:1;"
         offset="1"
         id="stop12029" />
    </linearGradient>
    <radialGradient
       inkscape:collect="always"
       xlink:href="#linearGradient12025"
       id="radialGradient12039"
       cx="578.63831"
       cy="85.501816"
       fx="578.63831"
       fy="85.501816"
       r="18.027184"
       gradientTransform="matrix(1,0,0,1.4525652,0,-39.06599)"
       gradientUnits="userSpaceOnUse" />
    <radialGradient
       inkscape:collect="always"
       xlink:href="#linearGradient36987"
       id="radialGradient36993"
       cx="132.85551"
       cy="1037.1481"
       fx="132.85551"
       fy="1037.1481"
       r="64.273895"
       gradientTransform="matrix(1,0,0,1.1805555,0,-189.43647)"
       gradientUnits="userSpaceOnUse" />
    <radialGradient
       inkscape:collect="always"
       xlink:href="#linearGradient36987"
       id="radialGradient37041"
       gradientUnits="userSpaceOnUse"
       gradientTransform="matrix(1,0,0,1.1805555,0,-189.43647)"
       cx="132.85551"
       cy="1037.1481"
       fx="132.85551"
       fy="1037.1481"
       r="64.273895" />
    <radialGradient
       inkscape:collect="always"
       xlink:href="#linearGradient36987"
       id="radialGradient37080"
       gradientUnits="userSpaceOnUse"
       gradientTransform="matrix(1.3974898,0,0,1.6498143,-6.3697788,-683.03882)"
       cx="132.85551"
       cy="1037.1481"
       fx="132.85551"
       fy="1037.1481"
       r="64.273895" />
    <filter
       inkscape:collect="always"
       id="filter37147"
       x="-0.030212105"
       width="1.0604242"
       y="-0.11672219"
       height="1.2334444">
      <feGaussianBlur
         inkscape:collect="always"
         stdDeviation="1.0912549"
         id="feGaussianBlur37149" />
    </filter>
    <clipPath
       clipPathUnits="userSpaceOnUse"
       id="clipPath37193">
      <rect
         ry="0"
         rx="0"
         y="883.77539"
         x="-12.667555"
         height="168.58675"
         width="384.64908"
         id="rect37195"
         style="color:#000000;fill:#ff0200;fill-opacity:0.39269403;fill-rule:nonzero;stroke:none;stroke-width:1;marker:none;visibility:visible;display:inline;overflow:visible;enable-background:accumulate" />
    </clipPath>
  </defs>
  <sodipodi:namedview
     id="base"
     pagecolor="#ffffff"
     bordercolor="#666666"
     borderopacity="1.0"
     inkscape:pageopacity="0.0"
     inkscape:pageshadow="2"
     inkscape:zoom="2.8847253"
     inkscape:cx="123.41313"
     inkscape:cy="9.4843922"
     inkscape:document-units="px"
     inkscape:current-layer="layer1"
     showgrid="false"
     inkscape:window-width="1852"
     inkscape:window-height="937"
     inkscape:window-x="66"
     inkscape:window-y="24"
     inkscape:window-maximized="0" />
  <metadata
     id="metadata11247">
    <rdf:RDF>
      <cc:Work
         rdf:about="">
        <dc:format>image/svg+xml</dc:format>
        <dc:type
           rdf:resource="http://purl.org/dc/dcmitype/StillImage" />
        <dc:title></dc:title>
      </cc:Work>
    </rdf:RDF>
  </metadata>
  <g
     inkscape:label="Layer 1"
     inkscape:groupmode="layer"
     id="layer1"
     transform="translate(0,-902.36218)">
    <g
       id="g12049"
       transform="translate(32.136946,16.663602)">
      <path
         sodipodi:nodetypes="scccccssscsss"
         inkscape:connector-curvature="0"
         id="rect12018"
         d="m 599.88964,60.135578 80.34237,0 2.82686,-36.302846 41.51022,0 11.7538,36.302846 84.13631,0 98.12183,8.926929 c 14.44719,1.314377 30.57971,5.147507 30.05395,14.283089 -0.59513,10.340951 -15.71376,12.0904 -30.05395,14.283088 l -97.30354,14.878216 -221.38785,0 c -14.50686,0 -26.18566,-11.67881 -26.18566,-26.185662 0,-14.506856 11.6788,-26.18566 26.18566,-26.18566 z"
         style="color:#000000;fill:#080709;fill-opacity:1;fill-rule:nonzero;stroke:none;stroke-width:1;marker:none;visibility:visible;display:inline;overflow:visible;enable-background:accumulate"
         transform="translate(0,902.36218)" />
      <path
         transform="translate(0,902.36218)"
         inkscape:connector-curvature="0"
         id="path12021"
         d="m 910.54681,68.467378 14.28308,-26.18566 18.44899,0 0,73.795952 -24.40027,0 -5.61672,-20.96188 z"
         style="fill:#080709;fill-opacity:1;stroke:none" />
      <path
         transform="translate(0,902.36218)"
         style="color:#000000;fill:url(#radialGradient12039);fill-opacity:1;fill-rule:nonzero;stroke:none;stroke-width:1;marker:none;visibility:visible;display:inline;overflow:visible;enable-background:accumulate"
         d="m 599.88964,60.135578 c 6.58813,17.420875 8.40831,33.922334 0,52.371322 -14.50686,0 -26.18566,-11.67881 -26.18566,-26.185662 0,-14.506856 11.6788,-26.18566 26.18566,-26.18566 z"
         id="path12023"
         inkscape:connector-curvature="0"
         sodipodi:nodetypes="ccsc" />
      <rect
         ry="1.1902573"
         y="912.34106"
         x="689.75409"
         height="22.01976"
         width="2.3805146"
         id="rect12041"
         style="color:#000000;fill:#080709;fill-opacity:1;fill-rule:nonzero;stroke:none;stroke-width:1;marker:none;visibility:visible;display:inline;overflow:visible;enable-background:accumulate" />
      <rect
         ry="1.1902573"
         y="921.26801"
         x="698.08588"
         height="8.9269295"
         width="2.3805146"
         id="rect12045"
         style="color:#000000;fill:#080709;fill-opacity:1;fill-rule:nonzero;stroke:none;stroke-width:1;marker:none;visibility:visible;display:inline;overflow:visible;enable-background:accumulate" />
      <rect
         ry="1.1902573"
         y="891.51154"
         x="711.77386"
         height="41.063877"
         width="2.3805146"
         id="rect12047"
         style="color:#000000;fill:#080709;fill-opacity:1;fill-rule:nonzero;stroke:none;stroke-width:1;marker:none;visibility:visible;display:inline;overflow:visible;enable-background:accumulate" />
    </g>
    <g
       id="g37153"
       clip-path="url(#clipPath37193)">
      <path
         style="fill:#230200;fill-opacity:1;stroke:none"
         d="m 244.53036,1001.9798 c 30.84448,-15.46374 33.5266,-20.22191 37.54981,-30.92764 4.02319,-10.70574 1.34105,-29.14342 1.34105,-29.14342 0,0 -7.24338,15.60775 -15.42223,21.4115 -13.41065,9.51622 -39.5614,10.70575 -39.5614,10.70575 z"
         id="path36977"
         inkscape:connector-curvature="0"
         sodipodi:nodetypes="cscscc" />
      <path
         sodipodi:nodetypes="cscscc"
         inkscape:connector-curvature="0"
         id="path36975"
         d="M 85.568611,999.07321 C 54.72413,983.60943 52.042002,978.8512 48.018808,968.14549 c -4.023193,-10.70574 -1.341065,-29.14342 -1.341065,-29.14342 0,0 7.243384,15.60775 15.422239,21.4115 13.410647,9.51622 39.561398,10.70575 39.561398,10.70575 z"
         style="fill:#230200;fill-opacity:1;stroke:none" />
      <rect
         rx="89.822113"
         ry="85.663681"
         y="941.88501"
         x="73.485664"
         height="212.07997"
         width="179.64423"
         id="rect36882"
         style="color:#000000;fill:url(#radialGradient37080);fill-opacity:1;fill-rule:nonzero;stroke:none;stroke-width:1;marker:none;visibility:visible;display:inline;overflow:visible;enable-background:accumulate" />
      <path
         id="rect37092"
         transform="translate(0,902.36218)"
         d="M 244.09375 130.375 C 237.18244 130.375 231.59375 135.37357 231.59375 141.59375 C 231.59375 147.81385 237.18243 152.8125 244.09375 152.8125 C 244.52571 152.8125 244.92335 152.81945 245.34375 152.78125 C 250.69651 152.29493 255.03116 148.77198 256.21875 144.15625 C 256.6215 145.88668 257.48526 147.46908 258.6875 148.78125 C 258.93069 149.04668 259.19871 149.28821 259.46875 149.53125 C 261.62909 151.47555 264.62678 152.6875 267.9375 152.6875 C 268.35134 152.6875 268.75348 152.66159 269.15625 152.625 C 274.26936 152.16045 278.3791 148.80906 279.53125 144.40625 C 280.07989 148.36929 283.36499 151.55743 287.65625 152.34375 C 287.99236 152.40534 288.34015 152.43719 288.6875 152.46875 C 289.03485 152.50031 289.3931 152.53125 289.75 152.53125 C 290.1069 152.53125 290.46515 152.50031 290.8125 152.46875 C 295.3052 152.06057 298.931 149.09066 299.84375 145.1875 C 300.27296 148.49565 302.84533 151.19846 306.28125 152.15625 C 307.15151 152.39884 308.07011 152.53125 309.03125 152.53125 C 309.35163 152.53125 309.65694 152.49708 309.96875 152.46875 C 314.02229 152.10047 317.2952 149.40504 318.09375 145.875 C 318.2166 145.33193 318.28125 144.76417 318.28125 144.1875 C 318.28125 139.57401 314.15735 135.875 309.03125 135.875 C 304.59496 135.875 300.9122 138.66719 300 142.40625 C 299.52209 137.67189 295.13907 133.96875 289.75 133.96875 C 284.98233 133.96875 281.00056 136.86915 279.8125 140.8125 C 279.20261 135.37511 274.1451 131.15625 267.9375 131.15625 C 262.30503 131.15625 257.59036 134.63872 256.3125 139.34375 C 255.15303 134.21823 250.14115 130.375 244.09375 130.375 z "
         style="color:#000000;fill:#000000;fill-opacity:1;fill-rule:nonzero;stroke:none;stroke-width:1;marker:none;visibility:visible;display:inline;overflow:visible;enable-background:accumulate;filter:url(#filter37147)" />
      <g
         transform="matrix(1.3974898,0,0,1.3974898,31.90135,-417.3344)"
         id="g36915">
        <g
           id="g36893"
           transform="translate(-57.658172,11.446056)">
          <rect
             ry="16.068474"
             rx="64.273895"
             y="1026.1766"
             x="200.55835"
             height="16.068474"
             width="17.853859"
             id="rect36884"
             style="color:#000000;fill:#3a0709;fill-opacity:1;fill-rule:nonzero;stroke:none;stroke-width:1;marker:none;visibility:visible;display:inline;overflow:visible;enable-background:accumulate" />
          <path
             sodipodi:nodetypes="cscc"
             inkscape:connector-curvature="0"
             id="rect36890"
             d="m 218.41221,1034.2109 c 0,4.4509 -3.98141,8.0342 -8.92693,8.0342 -4.94552,0 -8.92693,-3.5833 -8.92693,-8.0342 9.24427,2.3 9.3276,2.394 17.85386,0 z"
             style="color:#000000;fill:#090f07;fill-opacity:1;fill-rule:nonzero;stroke:none;stroke-width:1;marker:none;visibility:visible;display:inline;overflow:visible;enable-background:accumulate" />
        </g>
        <g
           transform="matrix(0.95805908,0,0,0.95805908,-31.810053,55.051808)"
           id="g36897">
          <rect
             style="color:#000000;fill:#3a0709;fill-opacity:1;fill-rule:nonzero;stroke:none;stroke-width:1;marker:none;visibility:visible;display:inline;overflow:visible;enable-background:accumulate"
             id="rect36899"
             width="17.853859"
             height="16.068474"
             x="200.55835"
             y="1026.1766"
             rx="64.273895"
             ry="16.068474" />
          <path
             style="color:#000000;fill:#090f07;fill-opacity:1;fill-rule:nonzero;stroke:none;stroke-width:1;marker:none;visibility:visible;display:inline;overflow:visible;enable-background:accumulate"
             d="m 218.41221,1034.2109 c 0,4.4509 -3.98141,8.0342 -8.92693,8.0342 -4.94552,0 -8.92693,-3.5833 -8.92693,-8.0342 9.24427,2.3 9.3276,2.394 17.85386,0 z"
             id="path36901"
             inkscape:connector-curvature="0"
             sodipodi:nodetypes="cscc" />
        </g>
        <g
           id="g36903"
           transform="matrix(0.82624474,0,0,0.82624474,11.421094,192.32768)">
          <rect
             ry="16.068474"
             rx="64.273895"
             y="1026.1766"
             x="200.55835"
             height="16.068474"
             width="17.853859"
             id="rect36905"
             style="color:#000000;fill:#3a0709;fill-opacity:1;fill-rule:nonzero;stroke:none;stroke-width:1;marker:none;visibility:visible;display:inline;overflow:visible;enable-background:accumulate" />
          <path
             sodipodi:nodetypes="cscc"
             inkscape:connector-curvature="0"
             id="path36907"
             d="m 218.41221,1034.2109 c 0,4.4509 -3.98141,8.0342 -8.92693,8.0342 -4.94552,0 -8.92693,-3.5833 -8.92693,-8.0342 9.24427,2.3 9.3276,2.394 17.85386,0 z"
             style="color:#000000;fill:#090f07;fill-opacity:1;fill-rule:nonzero;stroke:none;stroke-width:1;marker:none;visibility:visible;display:inline;overflow:visible;enable-background:accumulate" />
        </g>
        <g
           transform="matrix(0.74169716,0,0,0.74169716,42.926074,280.44698)"
           id="g36909">
          <rect
             style="color:#000000;fill:#3a0709;fill-opacity:1;fill-rule:nonzero;stroke:none;stroke-width:1;marker:none;visibility:visible;display:inline;overflow:visible;enable-background:accumulate"
             id="rect36911"
             width="17.853859"
             height="16.068474"
             x="200.55835"
             y="1026.1766"
             rx="64.273895"
             ry="16.068474" />
          <path
             style="color:#000000;fill:#090f07;fill-opacity:1;fill-rule:nonzero;stroke:none;stroke-width:1;marker:none;visibility:visible;display:inline;overflow:visible;enable-background:accumulate"
             d="m 218.41221,1034.2109 c 0,4.4509 -3.98141,8.0342 -8.92693,8.0342 -4.94552,0 -8.92693,-3.5833 -8.92693,-8.0342 9.24427,2.3 9.3276,2.394 17.85386,0 z"
             id="path36913"
             inkscape:connector-curvature="0"
             sodipodi:nodetypes="cscc" />
        </g>
      </g>
      <path
         inkscape:connector-curvature="0"
         style="color:#000000;fill:#000000;fill-opacity:1;fill-rule:nonzero;stroke:none;stroke-width:1;marker:none;visibility:visible;display:inline;overflow:visible;filter:url(#filter37147);enable-background:accumulate"
         d="m 244.09375,130.375 c -6.91131,0 -12.5,4.99857 -12.5,11.21875 0,6.2201 5.58868,11.21875 12.5,11.21875 0.43196,0 0.8296,0.007 1.25,-0.0312 5.35276,-0.48632 9.68741,-4.00927 10.875,-8.625 0.40275,1.73043 1.26651,3.31283 2.46875,4.625 0.24319,0.26543 0.51121,0.50696 0.78125,0.75 2.16034,1.9443 5.15803,3.15625 8.46875,3.15625 0.41384,0 0.81598,-0.0259 1.21875,-0.0625 5.11311,-0.46455 9.22285,-3.81594 10.375,-8.21875 0.54864,3.96304 3.83374,7.15118 8.125,7.9375 0.33611,0.0616 0.6839,0.0934 1.03125,0.125 0.34735,0.0316 0.7056,0.0625 1.0625,0.0625 0.3569,0 0.71515,-0.0309 1.0625,-0.0625 4.4927,-0.40818 8.1185,-3.37809 9.03125,-7.28125 0.42921,3.30815 3.00158,6.01096 6.4375,6.96875 0.87026,0.24259 1.78886,0.375 2.75,0.375 0.32038,0 0.62569,-0.0342 0.9375,-0.0625 4.05354,-0.36828 7.32645,-3.06371 8.125,-6.59375 0.12285,-0.54307 0.1875,-1.11083 0.1875,-1.6875 0,-4.61349 -4.1239,-8.3125 -9.25,-8.3125 -4.43629,0 -8.11905,2.79219 -9.03125,6.53125 -0.47791,-4.73436 -4.86093,-8.4375 -10.25,-8.4375 -4.76767,0 -8.74944,2.9004 -9.9375,6.84375 -0.60989,-5.43739 -5.6674,-9.65625 -11.875,-9.65625 -5.63247,0 -10.34714,3.48247 -11.625,8.1875 -1.15947,-5.12552 -6.17135,-8.96875 -12.21875,-8.96875 z"
         transform="matrix(-1,0,0,1,335.98981,902.70883)"
         id="path37151" />
      <g
         transform="matrix(-1.3974898,0,0,1.3974898,302.40112,-416.84996)"
         id="g36929">
        <g
           transform="translate(-57.658172,11.446056)"
           id="g36931">
          <rect
             style="color:#000000;fill:#3a0709;fill-opacity:1;fill-rule:nonzero;stroke:none;stroke-width:1;marker:none;visibility:visible;display:inline;overflow:visible;enable-background:accumulate"
             id="rect36933"
             width="17.853859"
             height="16.068474"
             x="200.55835"
             y="1026.1766"
             rx="64.273895"
             ry="16.068474" />
          <path
             style="color:#000000;fill:#090f07;fill-opacity:1;fill-rule:nonzero;stroke:none;stroke-width:1;marker:none;visibility:visible;display:inline;overflow:visible;enable-background:accumulate"
             d="m 218.41221,1034.2109 c 0,4.4509 -3.98141,8.0342 -8.92693,8.0342 -4.94552,0 -8.92693,-3.5833 -8.92693,-8.0342 9.24427,2.3 9.3276,2.394 17.85386,0 z"
             id="path36935"
             inkscape:connector-curvature="0"
             sodipodi:nodetypes="cscc" />
        </g>
        <g
           id="g36937"
           transform="matrix(0.95805908,0,0,0.95805908,-31.810053,55.051808)">
          <rect
             ry="16.068474"
             rx="64.273895"
             y="1026.1766"
             x="200.55835"
             height="16.068474"
             width="17.853859"
             id="rect36939"
             style="color:#000000;fill:#3a0709;fill-opacity:1;fill-rule:nonzero;stroke:none;stroke-width:1;marker:none;visibility:visible;display:inline;overflow:visible;enable-background:accumulate" />
          <path
             sodipodi:nodetypes="cscc"
             inkscape:connector-curvature="0"
             id="path36941"
             d="m 218.41221,1034.2109 c 0,4.4509 -3.98141,8.0342 -8.92693,8.0342 -4.94552,0 -8.92693,-3.5833 -8.92693,-8.0342 9.24427,2.3 9.3276,2.394 17.85386,0 z"
             style="color:#000000;fill:#090f07;fill-opacity:1;fill-rule:nonzero;stroke:none;stroke-width:1;marker:none;visibility:visible;display:inline;overflow:visible;enable-background:accumulate" />
        </g>
        <g
           transform="matrix(0.82624474,0,0,0.82624474,11.421094,192.32768)"
           id="g36943">
          <rect
             style="color:#000000;fill:#3a0709;fill-opacity:1;fill-rule:nonzero;stroke:none;stroke-width:1;marker:none;visibility:visible;display:inline;overflow:visible;enable-background:accumulate"
             id="rect36945"
             width="17.853859"
             height="16.068474"
             x="200.55835"
             y="1026.1766"
             rx="64.273895"
             ry="16.068474" />
          <path
             style="color:#000000;fill:#090f07;fill-opacity:1;fill-rule:nonzero;stroke:none;stroke-width:1;marker:none;visibility:visible;display:inline;overflow:visible;enable-background:accumulate"
             d="m 218.41221,1034.2109 c 0,4.4509 -3.98141,8.0342 -8.92693,8.0342 -4.94552,0 -8.92693,-3.5833 -8.92693,-8.0342 9.24427,2.3 9.3276,2.394 17.85386,0 z"
             id="path36947"
             inkscape:connector-curvature="0"
             sodipodi:nodetypes="cscc" />
        </g>
        <g
           id="g36949"
           transform="matrix(0.74169716,0,0,0.74169716,42.926074,280.44698)">
          <rect
             ry="16.068474"
             rx="64.273895"
             y="1026.1766"
             x="200.55835"
             height="16.068474"
             width="17.853859"
             id="rect36951"
             style="color:#000000;fill:#3a0709;fill-opacity:1;fill-rule:nonzero;stroke:none;stroke-width:1;marker:none;visibility:visible;display:inline;overflow:visible;enable-background:accumulate" />
          <path
             sodipodi:nodetypes="cscc"
             inkscape:connector-curvature="0"
             id="path36953"
             d="m 218.41221,1034.2109 c 0,4.4509 -3.98141,8.0342 -8.92693,8.0342 -4.94552,0 -8.92693,-3.5833 -8.92693,-8.0342 9.24427,2.3 9.3276,2.394 17.85386,0 z"
             style="color:#000000;fill:#090f07;fill-opacity:1;fill-rule:nonzero;stroke:none;stroke-width:1;marker:none;visibility:visible;display:inline;overflow:visible;enable-background:accumulate" />
        </g>
      </g>
      <rect
         ry="53.288918"
         rx="89.822113"
         y="988.8996"
         x="185.47031"
         height="53.288918"
         width="37.302238"
         id="rect36955"
         style="color:#000000;fill:#faffff;fill-opacity:1;fill-rule:nonzero;stroke:none;stroke-width:1;marker:none;visibility:visible;display:inline;overflow:visible;enable-background:accumulate" />
      <rect
         style="color:#000000;fill:#faffff;fill-opacity:1;fill-rule:nonzero;stroke:none;stroke-width:1;marker:none;visibility:visible;display:inline;overflow:visible;enable-background:accumulate"
         id="rect36957"
         width="37.302238"
         height="53.288918"
         x="114.25694"
         y="987.93073"
         rx="89.822113"
         ry="53.288918" />
      <rect
         ry="34.88002"
         rx="58.792656"
         y="1001.9799"
         x="120.07027"
         height="34.88002"
         width="24.416012"
         id="rect36959"
         style="color:#000000;fill:#3b921a;fill-opacity:1;fill-rule:nonzero;stroke:none;stroke-width:1;marker:none;visibility:visible;display:inline;overflow:visible;enable-background:accumulate" />
      <rect
         style="color:#000000;fill:#070602;fill-opacity:1;fill-rule:nonzero;stroke:none;stroke-width:1;marker:none;visibility:visible;display:inline;overflow:visible;enable-background:accumulate"
         id="rect36961"
         width="18.31201"
         height="26.160017"
         x="122.97693"
         y="1007.3087"
         rx="44.094494"
         ry="26.160017" />
      <rect
         style="color:#000000;fill:#3b9224;fill-opacity:1;fill-rule:nonzero;stroke:none;stroke-width:1;marker:none;visibility:visible;display:inline;overflow:visible;enable-background:accumulate"
         id="rect36969"
         width="24.416012"
         height="34.88002"
         x="190.31474"
         y="1001.4954"
         rx="58.792656"
         ry="34.88002" />
      <rect
         ry="26.160017"
         rx="44.094494"
         y="1006.8243"
         x="193.22141"
         height="26.160017"
         width="18.31201"
         id="rect36971"
         style="color:#000000;fill:#070602;fill-opacity:1;fill-rule:nonzero;stroke:none;stroke-width:1;marker:none;visibility:visible;display:inline;overflow:visible;enable-background:accumulate" />
      <rect
         ry="34.598732"
         rx="61.348862"
         y="1027.6554"
         x="137.02583"
         height="39.724461"
         width="62.008919"
         id="rect36973"
         style="color:#000000;fill:#230200;fill-opacity:1;fill-rule:nonzero;stroke:none;stroke-width:1;marker:none;visibility:visible;display:inline;overflow:visible;enable-background:accumulate" />
    </g>
  </g>
</svg>
